HIERARCHY
ROOT root
{
	OFFSET	0	13.1	24.9
	CHANNELS 6  Xposition Yposition Zposition Xrotation Yrotation Zrotation
	JOINT spine_1
	{
		OFFSET	0	9.99999	0
		CHANNELS 3  Xrotation Yrotation Zrotation
		JOINT spine_2
		{
			OFFSET	0	112	-10
			CHANNELS 3  Xrotation Yrotation Zrotation
			JOINT spine_3
			{
				OFFSET	0	206.5	19.3
				CHANNELS 3  Xrotation Yrotation Zrotation
				JOINT spine_4
				{
					OFFSET	0	110.4	14.6
					CHANNELS 3  Xrotation Yrotation Zrotation
					JOINT neck_1
					{
						OFFSET	0	71.8	-50.3
						CHANNELS 3  Xrotation Yrotation Zrotation
						JOINT neck_2
						{
							OFFSET	0	86.2	-25.8
							CHANNELS 3  Xrotation Yrotation Zrotation
							JOINT head_ee
							{
								OFFSET	0	179.8	-8.7
								CHANNELS 3  Xrotation Yrotation Zrotation
								End Site
								{
									OFFSET	1	0	0
								}
							}
						}
					}
					JOINT left_clavicle
					{
						OFFSET	-43.2	22.4	-70.8
						CHANNELS 3  Xrotation Yrotation Zrotation
						JOINT left_shoulder
						{
							OFFSET	-93.9	-5.79999	48.7
							CHANNELS 3  Xrotation Yrotation Zrotation
							JOINT left_elbow
							{
								OFFSET	-291.4	-30.8	15.2
								CHANNELS 3  Xrotation Yrotation Zrotation
								JOINT left_lowarm_twist
								{
									OFFSET	-110.7	-3.89999	13.6
									CHANNELS 3  Xrotation Yrotation Zrotation
									JOINT left_hand
									{
										OFFSET	-110.7	-3.89999	13.6
										CHANNELS 3  Xrotation Yrotation Zrotation
										JOINT left_ee
										{
											OFFSET	-80.8	-5.10001	12.1
											CHANNELS 3  Xrotation Yrotation Zrotation
											End Site
											{
												OFFSET	1	0	0
											}
										}
									}
								}
							}
						}
					}
					JOINT right_clavicle
					{
						OFFSET	43.2	22.4	-70.8
						CHANNELS 3  Xrotation Yrotation Zrotation
						JOINT right_shoulder
						{
							OFFSET	93.9	-5.79999	48.7
							CHANNELS 3  Xrotation Yrotation Zrotation
							JOINT right_elbow
							{
								OFFSET	291.4	-30.8	15.2
								CHANNELS 3  Xrotation Yrotation Zrotation
								JOINT right_lowarm_twist
								{
									OFFSET	110.7	-3.89999	13.6
									CHANNELS 3  Xrotation Yrotation Zrotation
									JOINT right_hand
									{
										OFFSET	110.7	-3.89999	13.6
										CHANNELS 3  Xrotation Yrotation Zrotation
										JOINT right_ee
										{
											OFFSET	80.8	-5.10001	12.1
											CHANNELS 3  Xrotation Yrotation Zrotation
											End Site
											{
												OFFSET	1	0	0
											}
										}
									}
								}
							}
						}
					}
				}
			}
		}
	}
	JOINT left_hip
	{
		OFFSET	-82.8	-127.5	0.300001
		CHANNELS 3  Xrotation Yrotation Zrotation
		JOINT left_knee
		{
			OFFSET	-28.2	-396.7	2.2
			CHANNELS 3  Xrotation Yrotation Zrotation
			JOINT left_ankle
			{
				OFFSET	-11.7	-411.3	35.4
				CHANNELS 3  Xrotation Yrotation Zrotation
				JOINT left_toes
				{
					OFFSET	0	-60	-88.6
					CHANNELS 3  Xrotation Yrotation Zrotation
					JOINT left_foot_ee
					{
						OFFSET	-22.5	-16.5	-42.2
						CHANNELS 3  Xrotation Yrotation Zrotation
						End Site
						{
							OFFSET	1	0	0
						}
					}
				}
			}
		}
	}
	JOINT right_hip
	{
		OFFSET	82.8	-127.5	0.300001
		CHANNELS 3  Xrotation Yrotation Zrotation
		JOINT right_knee
		{
			OFFSET	28.2	-396.7	2.2
			CHANNELS 3  Xrotation Yrotation Zrotation
			JOINT right_ankle
			{
				OFFSET	11.7	-411.3	35.4
				CHANNELS 3  Xrotation Yrotation Zrotation
				JOINT right_toes
				{
					OFFSET	0	-60	-88.6
					CHANNELS 3  Xrotation Yrotation Zrotation
					JOINT right_foot_ee
					{
						OFFSET	22.5	-16.5	-42.2
						CHANNELS 3  Xrotation Yrotation Zrotation
						End Site
						{
							OFFSET	1	0	0
						}
					}
				}
			}
		}
	}
}
MOTION
Frames: 8
Frame Time: 0.02
2581.93 707.651 -1065.51 -20.6967 53.3997 16.5051 5.96405 0.203621 1.84749 5.96594 0.0856685 1.85669 5.9666 -0.114281 1.85515 5.96184 0.180088 1.84993 -14.1408 10.5458 -2.23932 -14.5006 21.4799 1.31589 -0.0 0.0 -0.0 -1.77649 5.42398 -2.60261 -26.4622 -23.4561 73.8634 0.506746 -14.0918 0.062633 48.6012 -0.870498 -5.96363 0.308613 16.5066 8.63895 -0.0 0.0 -0.0 10.801 3.66184 -21.4998 -20.1869 40.0252 -57.4268 1.33986 33.5716 -0.40418 46.5361 0.732137 5.7384 -0.877443 -0.572711 5.61802 0.0 0.0 0.0 30.2476 -17.1895 -6.59303 4.39497 -0.205773 -0.642754 -4.877 16.847 0.728705 -18.6907 0.0 0.0 -0.0 0.0 -0.0 0.529776 18.8876 1.20294 -11.8389 -0.303611 -1.78828 41.3846 -9.55928 4.99266 -24.314 0.0 0.0 0.0 0.0 0.0 
2557.99 703.343 -1071.68 -20.278 52.8613 16.3042 6.059 0.104934 1.83399 6.06087 -0.0119601 1.83695 6.05837 -0.206348 1.82537 6.05373 0.0844748 1.83505 -12.1872 11.3151 -1.92755 -12.4773 22.7004 1.46061 -0.0 0.0 -0.0 -2.18738 4.68824 -3.47769 -25.1271 -23.6482 74.6087 0.503018 -13.9922 0.0617286 48.8151 -0.885298 -5.98668 0.223119 17.7645 8.58413 -0.0 0.0 -0.0 10.8073 4.75344 -21.5495 -20.3974 39.4257 -58.7269 1.18994 30.5166 -0.324611 45.6783 0.677077 5.64343 -0.836126 -1.26391 5.03827 0.0 0.0 0.0 29.1685 -16.8678 -6.78475 3.17401 -0.143659 -0.465769 -2.24715 15.3919 0.332932 -15.969 0.0 0.0 -0.0 0.0 -0.0 -0.535458 18.4106 1.49719 -13.2306 -0.314859 -2.0015 41.3266 -8.35852 4.98021 -22.6773 0.0 0.0 0.0 0.0 0.0 
2533.45 704.354 -1077.51 -19.4342 52.8291 16.4269 5.97263 0.088934 1.75646 5.97434 -0.0229966 1.75856 5.97174 -0.211664 1.74593 5.96749 0.0666849 1.75744 -11.6209 11.6469 -2.33966 -11.8932 23.5723 1.04453 -0.0 0.0 -0.0 -1.86449 3.98714 -2.98963 -23.1837 -24.2439 74.1272 0.44009 -12.2987 0.0474158 48.6673 -0.875061 -5.97076 -0.0416895 18.5911 7.28252 -0.0 0.0 -0.0 10.7414 4.34645 -21.3949 -20.4948 38.8486 -60.6915 1.00784 26.5302 -0.2376 44.867 0.626316 5.55285 -0.898474 -2.48307 4.91837 0.0 0.0 0.0 28.0311 -16.7321 -7.34181 0.167963 -0.00695284 -0.0248376 -0.686786 13.6256 0.101081 -13.517 0.0 0.0 -0.0 0.0 -0.0 -0.615889 18.6541 0.984592 -15.1493 -0.321869 -2.29579 40.6443 -7.65226 4.9188 -20.8872 0.0 0.0 0.0 0.0 0.0 
2493.74 708.723 -1084.63 -18.3133 52.6673 16.2312 6.02498 0.0589975 1.55873 6.02633 -0.0402955 1.55932 6.02372 -0.206064 1.54617 6.02039 0.0406807 1.55931 -9.18888 11.6401 -2.76952 -9.29416 23.743 0.0866323 -0.0 0.0 -0.0 -1.72324 4.00684 -2.72331 -22.0818 -24.7035 74.1479 0.387297 -10.8608 0.0368177 47.815 -0.816864 -5.87847 -0.272312 19.19 6.12232 -0.0 0.0 -0.0 10.4587 2.03264 -20.7063 -22.8415 37.8349 -60.9288 0.823869 22.2012 -0.161649 43.7456 0.558285 5.42652 -0.719625 -2.65908 3.65284 0.0 0.0 0.0 26.4 -15.4196 -7.18837 -2.1872 0.0838569 0.325167 2.82884 12.9345 -0.412382 -11.7258 0.0 0.0 -0.0 0.0 -0.0 -1.03805 18.9398 1.21718 -18.3858 -0.311357 -2.79218 40.8401 -8.93921 4.94216 -18.2948 0.0 0.0 0.0 0.0 0.0 
2474.93 713.65 -1091.5 -18.0415 52.6286 16.5157 6.02028 0.208817 1.46794 6.02147 0.114996 1.47825 6.02307 -0.0429856 1.48209 6.02005 0.191597 1.47029 -6.41869 11.8585 -2.91438 -6.33447 24.0949 -0.6208 -0.0 0.0 -0.0 -1.52166 2.61339 -2.55546 -20.0268 -25.7129 72.8504 0.368356 -10.3414 0.0333331 47.452 -0.7925 -5.83891 -0.0562289 18.2124 7.04789 -0.0 0.0 -0.0 10.3068 0.916682 -20.3366 -24.1961 37.3209 -61.6873 0.708289 19.3343 -0.120653 43.4814 0.542619 5.39656 -0.702725 -4.55109 2.71822 0.0 0.0 0.0 25.1869 -14.2897 -7.40945 -2.65614 0.100214 0.395275 10.0555 14.9598 -1.43997 -9.68809 0.0 0.0 -0.0 0.0 -0.0 -0.0218665 18.798 0.0157139 -20.7096 -0.286528 -3.14787 38.2059 -11.1764 4.72466 -16.458 0.0 0.0 0.0 0.0 0.0 
2446.98 723.648 -1094.26 -16.5281 53.1826 15.5479 5.68209 0.214061 1.36432 5.68312 0.12682 1.37517 5.68508 -0.0283995 1.38072 5.68247 0.189995 1.36788 -5.51155 11.6049 -2.86934 -5.37186 23.53 -0.81964 -0.0 0.0 -0.0 -0.957531 2.38959 -1.52179 -17.8434 -25.966 72.1189 0.334463 -9.40769 0.0275206 47.037 -0.764947 -5.79348 -0.41513 18.3547 4.92691 -0.0 0.0 -0.0 10.1273 0.467187 -19.9411 -25.7801 36.5581 -62.2186 0.606557 16.7241 -0.0891589 43.117 0.521237 5.35513 -0.665941 -5.37508 2.11919 0.0 0.0 0.0 23.7072 -13.1986 -6.31107 -4.77116 0.166829 0.713015 13.0325 15.5185 -1.84944 -9.4212 0.0 0.0 -0.0 0.0 -0.0 1.74055 20.2681 -1.16134 -24.0216 -0.226261 -3.65244 37.9602 -13.8674 4.73018 -14.7967 0.0 0.0 0.0 0.0 0.0 
2431.24 724.922 -1095.88 -16.4226 53.2111 15.1214 5.56977 0.260456 1.30148 5.5707 0.177119 1.31541 5.57381 0.0257291 1.32703 5.57143 0.234968 1.30632 -4.96219 12.1777 -1.82908 -4.80776 23.7708 0.2299 -0.0 0.0 -0.0 -0.805279 1.53712 -1.34868 -16.0876 -26.2882 70.5483 0.335514 -9.43672 0.0276926 47.0651 -0.766805 -5.79657 -0.243902 18.332 5.95477 -0.0 0.0 -0.0 10.0417 -0.348308 -19.7235 -27.1612 36.4042 -62.0312 0.530911 14.7351 -0.0686482 43.0625 0.518065 5.34892 -0.723284 -7.84017 1.4258 0.0 0.0 0.0 22.3231 -12.5513 -5.96417 -2.7375 0.102993 0.407454 12.3593 15.692 -1.75888 -9.71186 0.0 0.0 -0.0 0.0 -0.0 3.16224 22.0835 -1.27846 -26.9001 -0.150263 -4.0876 40.7025 -12.9657 4.96707 -12.8898 0.0 0.0 0.0 0.0 0.0 
2412.83 730.303 -1098.98 -16.544 54.9677 15.4527 5.2431 0.0488045 1.30095 5.24404 -0.0340704 1.30142 5.24241 -0.189989 1.28793 5.24009 0.0157828 1.30177 -7.67159 11.8629 -0.241808 -7.70584 22.2968 2.31589 -0.0 0.0 -0.0 -0.578162 0.731415 -1.02085 -14.3083 -26.6715 69.3482 0.346175 -9.73092 0.0294676 46.9352 -0.758239 -5.78231 -0.0616534 12.7048 4.84097 -0.0 0.0 -0.0 9.68781 -0.903653 -18.9699 -28.1071 35.8259 -62.8674 0.463928 12.943 -0.0526243 42.9987 0.514359 5.34166 -0.501279 -9.33651 -0.64806 0.0 0.0 0.0 20.5297 -11.8495 -4.99354 -0.522148 0.0211478 0.0773384 10.9642 16.4111 -1.57077 -10.0304 0.0 0.0 -0.0 0.0 -0.0 8.21922 25.4997 -3.16681 -35.327 0.196543 -5.3331 40.5324 -14.6277 4.97453 -11.4457 0.0 0.0 0.0 0.0 0.0 
